<svg height="496pt" viewBox="0 0 496 496" width="496pt" xmlns="http://www.w3.org/2000/svg"><path d="m128 72 8 48h-104c-6.640625 0-12.640625-2.71875-16.960938-7.039062-4.320312-4.320313-7.039062-10.320313-7.039062-16.960938 0-13.28125 10.71875-24 24-24zm0 0" fill="#ccd1d9"/><path d="m136 120 25.601562 128h-9.601562c-12.800781 0-25.121094 2-36.640625 5.761719l-1.597656-4.882813-25.761719-128.878906zm0 0" fill="#cf9e76"/><path d="m400 408v16c0 8.800781-7.199219 16-16 16h-90.480469c-7.757812 0-14.480469-5.679688-15.757812-13.359375l-6.960938-41.761719c.800781-5.519531 1.199219-11.117187 1.199219-16.878906 0-27.039062-8.960938-52-24-72h56l16 96h64c8.800781 0 16 7.199219 16 16zm0 0" fill="#e6e9ed"/><path d="m352 264v16c0 8.800781-7.199219 16-16 16h-88c-20.078125-26.71875-51.039062-44.800781-86.320312-47.601562l-.078126-.398438h174.398438c8.800781 0 16 7.199219 16 16zm0 0" fill="#cf9e76"/><path d="m172.800781 356c2 3.519531 3.199219 7.601562 3.199219 12s-1.199219 8.480469-3.199219 12c-4.160156 7.199219-11.921875 12-20.800781 12s-16.640625-4.800781-20.800781-12c-2-3.519531-3.199219-7.601562-3.199219-12s1.199219-8.480469 3.199219-12c4.160156-7.199219 11.921875-12 20.800781-12s16.640625 4.800781 20.800781 12zm0 0" fill="#fcd770"/><path d="m272 368c0 5.761719-.398438 11.359375-1.199219 16.878906-8.242187 58.242188-58.320312 103.121094-118.800781 103.121094-66.238281 0-120-53.761719-120-120 0-53.441406 35.039062-98.800781 83.359375-114.238281 11.519531-3.761719 23.839844-5.761719 36.640625-5.761719 3.28125 0 6.480469.160156 9.679688.398438 35.28125 2.800781 66.242187 20.882812 86.320312 47.601562 15.039062 20 24 44.960938 24 72zm-32 0c0-16-4.238281-31.039062-11.761719-44-15.199219-26.320312-43.597656-44-76.238281-44s-61.039062 17.679688-76.238281 44c-7.523438 12.960938-11.761719 28-11.761719 44s4.238281 31.039062 11.761719 44c15.199219 26.320312 43.597656 44 76.238281 44s61.039062-17.679688 76.238281-44c7.523438-12.960938 11.761719-28 11.761719-44zm0 0" fill="#969faa"/><path d="m488 61.359375v3.28125c0 14.878906-6.238281 29.121094-17.121094 39.199219l-86.878906 80.160156-86.878906-80.160156c-10.882813-10.078125-17.121094-24.320313-17.121094-39.199219v-3.28125c0-14.800781 5.921875-28.078125 15.601562-37.757813 9.679688-9.679687 22.957032-15.601562 37.757813-15.601562 16.800781 0 32.5625 7.921875 42.640625 21.359375l8 10.640625 8-10.640625c5.039062-6.71875 11.519531-12.078125 18.800781-15.757813 7.277344-3.601562 15.4375-5.601562 23.839844-5.601562 29.519531 0 53.359375 23.839844 53.359375 53.359375zm0 0" fill="#ef7385"/><path d="m320 64.648438h-16c0 8.167968 3.441406 16.015624 9.433594 21.550781l65.140625 60.136719 10.851562-11.761719-65.144531-60.132813c-2.722656-2.511718-4.28125-6.082031-4.28125-9.792968zm0 0"/><path d="m434.664062 0c-19.199218 0-37.542968 9.167969-49.0625 24.527344l-1.601562 2.136718-1.601562-2.136718c-11.519532-15.359375-29.863282-24.527344-49.0625-24.527344-33.824219 0-61.335938 27.511719-61.335938 61.335938v3.320312c0 17.070312 7.191406 33.496094 19.734375 45.070312l92.265625 85.160157 92.265625-85.167969c12.542969-11.574219 19.734375-28 19.734375-45.070312v-3.3125c0-33.824219-27.511719-61.335938-61.335938-61.335938zm45.335938 64.648438c0 12.617187-5.320312 24.757812-14.585938 33.3125l-81.414062 75.152343-81.414062-75.152343c-9.265626-8.554688-14.585938-20.695313-14.585938-33.3125v-3.3125c0-25 20.335938-45.335938 45.335938-45.335938 14.191406 0 27.753906 6.777344 36.273437 18.136719l14.398437 19.199219 14.398438-19.199219c8.503906-11.359375 22.066406-18.136719 36.257812-18.136719 25 0 45.335938 20.335938 45.335938 45.335938zm0 0"/><path d="m152 272c-52.9375 0-96 43.0625-96 96s43.0625 96 96 96 96-43.0625 96-96-43.0625-96-96-96zm80 96c0 11.710938-2.59375 22.800781-7.128906 32.832031l-42.160156-24.34375c.753906-2.71875 1.289062-5.527343 1.289062-8.488281s-.535156-5.769531-1.289062-8.488281l42.160156-24.34375c4.535156 10.03125 7.128906 21.121093 7.128906 32.832031zm-15.160156-46.671875-42.046875 24.273437c-4-4.074218-9.105469-6.984374-14.792969-8.464843v-48.730469c23.382812 2.328125 43.769531 14.816406 56.839844 32.921875zm-64.839844 62.671875c-8.824219 0-16-7.175781-16-16s7.175781-16 16-16 16 7.175781 16 16-7.175781 16-16 16zm-8-95.59375v48.730469c-5.6875 1.480469-10.792969 4.390625-14.792969 8.464843l-42.046875-24.273437c13.070313-18.105469 33.457032-30.59375 56.839844-32.921875zm-72 79.59375c0-11.710938 2.59375-22.800781 7.128906-32.832031l42.160156 24.34375c-.753906 2.71875-1.289062 5.527343-1.289062 8.488281s.535156 5.769531 1.289062 8.488281l-42.160156 24.34375c-4.535156-10.03125-7.128906-21.121093-7.128906-32.832031zm15.160156 46.671875 42.046875-24.273437c4 4.074218 9.105469 6.984374 14.792969 8.464843v48.730469c-23.382812-2.328125-43.769531-14.816406-56.839844-32.921875zm72.839844 32.921875v-48.730469c5.6875-1.480469 10.792969-4.390625 14.792969-8.464843l42.046875 24.273437c-13.070313 18.105469-33.457032 30.59375-56.839844 32.921875zm0 0"/><path d="m384 384h-57.222656l-13.335938-80h22.558594c13.230469 0 24-10.769531 24-24v-16c0-13.230469-10.769531-24-24-24h-167.839844l-24.273437-121.382812-9.109375-54.617188h-102.777344c-17.648438 0-32 14.351562-32 32s14.351562 32 32 32h49.441406l24.167969 120.832031c-47.6875 18.632813-81.609375 64.96875-81.609375 119.167969 0 70.574219 57.425781 128 128 128 51.878906 0 96.550781-31.078125 116.632812-75.542969l1.246094 7.496094c1.9375 11.613281 11.898438 20.046875 23.671875 20.046875h90.449219c13.230469 0 24-10.769531 24-24v-16c0-13.230469-10.769531-24-24-24zm-40-120v16c0 4.40625-3.59375 8-8 8h-84.238281c-10.425781-12.96875-23.289063-23.878906-37.929688-32h122.167969c4.40625 0 8 3.59375 8 8zm-328-168c0-8.824219 7.175781-16 16-16h89.222656l5.335938 32h-94.558594c-8.824219 0-16-7.175781-16-16zm81.761719 32h31.6875l22.398437 112.007812c-10.664062.015626-20.976562 1.472657-30.886718 3.960938zm54.238281 352c-61.761719 0-112-50.238281-112-112s50.238281-112 112-112 112 50.238281 112 112-50.238281 112-112 112zm240-56c0 4.40625-3.59375 8-8 8h-90.449219c-3.925781 0-7.246093-2.816406-7.886719-6.6875l-6.832031-40.960938c.695313-5.367187 1.167969-10.800781 1.167969-16.351562 0-23.328125-6.375-45.144531-17.320312-64h34.542968l16 96h70.777344c4.40625 0 8 3.59375 8 8zm0 0"/></svg>